# Blender v2.82 (sub 7) OBJ File: ''
# www.blender.org
o Cube_Cube.001
v -2.024587 -1.157966 -0.636849
v -2.266438 -0.606992 -0.843736
v -1.919733 -0.678991 -1.440781
v -1.677882 -1.229965 -1.233894
v 1.002838 1.157966 0.034841
v 1.244689 0.606992 0.241728
v 0.656133 1.229965 0.631885
v 0.897984 0.678991 0.838773
vt 0.625000 0.000000
vt 0.375000 0.000000
vt 0.375000 0.250000
vt 0.625000 0.250000
vt 0.375000 0.500000
vt 0.625000 0.500000
vt 0.375000 0.750000
vt 0.625000 0.750000
vt 0.375000 1.000000
vt 0.125000 0.500000
vt 0.125000 0.750000
vt 0.875000 0.500000
vt 0.625000 1.000000
vt 0.875000 0.750000
vn -0.7785 -0.4893 -0.3931
vn 0.4995 -0.1037 -0.8601
vn 0.7785 0.4893 0.3931
vn -0.4995 0.1037 0.8601
vn -0.3801 0.8659 -0.3251
vn 0.3801 -0.8659 0.3251
s 1
f 1/1/1 2/2/1 3/3/1
f 4/4/2 3/3/2 5/5/2
f 6/6/3 5/5/3 7/7/3
f 8/8/4 7/7/4 2/9/4
f 5/5/5 3/10/5 2/11/5
f 4/12/6 6/6/6 8/8/6
f 1/1/1 3/3/1 4/4/1
f 4/4/2 5/5/2 6/6/2
f 6/6/3 7/7/3 8/8/3
f 8/8/4 2/9/4 1/13/4
f 5/5/5 2/11/5 7/7/5
f 4/12/6 8/8/6 1/14/6
o Cube.001_Cube.002
v -0.818375 0.562937 0.522786
v -0.562338 1.052608 0.207299
v -0.558770 0.675337 -0.375372
v -0.814806 0.185666 -0.059884
v 2.877939 -0.583097 0.460494
v 2.621902 -1.072768 0.775981
v 2.874371 -0.205825 1.043165
v 2.618334 -0.695496 1.358652
vt 0.625000 0.000000
vt 0.375000 0.000000
vt 0.375000 0.250000
vt 0.625000 0.250000
vt 0.375000 0.500000
vt 0.625000 0.500000
vt 0.375000 0.750000
vt 0.625000 0.750000
vt 0.375000 1.000000
vt 0.125000 0.500000
vt 0.125000 0.750000
vt 0.875000 0.500000
vt 0.625000 1.000000
vt 0.875000 0.750000
vn -0.9155 0.3352 -0.2227
vn 0.0051 -0.5435 -0.8394
vn 0.9155 -0.3352 0.2227
vn -0.0051 0.5435 0.8394
vn 0.4024 0.7696 -0.4958
vn -0.4024 -0.7696 0.4958
s 1
f 9/15/7 10/16/7 11/17/7
f 12/18/8 11/17/8 13/19/8
f 14/20/9 13/19/9 15/21/9
f 16/22/10 15/21/10 10/23/10
f 13/19/11 11/24/11 10/25/11
f 12/26/12 14/20/12 16/22/12
f 9/15/7 11/17/7 12/18/7
f 12/18/8 13/19/8 14/20/8
f 14/20/9 15/21/9 16/22/9
f 16/22/10 10/23/10 9/27/10
f 13/19/11 10/25/11 15/21/11
f 12/26/12 16/22/12 9/28/12
